<svg width="24" height="24" viewBox="0 0 24 24" fill="none" xmlns="http://www.w3.org/2000/svg">
<path d="M12.0001 19.5008C16.1423 19.5008 19.5001 16.1429 19.5001 12.0008C19.5001 7.85866 16.1423 4.50079 12.0001 4.50079C7.85799 4.50079 4.50012 7.85866 4.50012 12.0008C4.50012 16.1429 7.85799 19.5008 12.0001 19.5008Z" stroke="white" stroke-opacity="0.7" stroke-width="1.5" stroke-linecap="round" stroke-linejoin="round"/>
<path d="M12.0001 15.0008C13.657 15.0008 15.0001 13.6576 15.0001 12.0008C15.0001 10.3439 13.657 9.00079 12.0001 9.00079C10.3433 9.00079 9.00012 10.3439 9.00012 12.0008C9.00012 13.6576 10.3433 15.0008 12.0001 15.0008Z" stroke="white" stroke-opacity="0.7" stroke-width="1.5" stroke-linecap="round" stroke-linejoin="round"/>
<path d="M12.0001 4.00079V2.00079" stroke="white" stroke-opacity="0.7" stroke-width="1.5" stroke-linecap="round" stroke-linejoin="round"/>
<path d="M4.00012 12.0008H2.00012" stroke="white" stroke-opacity="0.7" stroke-width="1.5" stroke-linecap="round" stroke-linejoin="round"/>
<path d="M12.0001 20.0008V22.0008" stroke="white" stroke-opacity="0.7" stroke-width="1.5" stroke-linecap="round" stroke-linejoin="round"/>
<path d="M20.0001 12.0008H22.0001" stroke="white" stroke-opacity="0.7" stroke-width="1.5" stroke-linecap="round" stroke-linejoin="round"/>
</svg>
