<svg width="205" height="41" viewBox="0 0 205 41" fill="none" xmlns="http://www.w3.org/2000/svg">
<path d="M63.4906 31.9668V8.25639H74.2831C79.1315 8.25639 81.5557 10.3762 81.5557 14.6157C81.5557 17.4826 79.6683 19.857 75.8937 21.7388L83.4153 32H77.8696L70.6469 21.6558V19.6467C74.8532 18.9272 76.9564 17.2945 76.9564 14.7485C76.9564 12.9996 75.9712 12.1251 74.0009 12.1251H67.9736V31.9668H63.4906ZM87.9482 32H83.4319L93.5105 8.25639H98.2426L108.537 32H103.805L101.098 25.5245H93.2116L94.7226 21.7056H99.5045L95.7686 12.7893L87.9482 32ZM111.028 31.0038V27.0188C113.408 27.9044 116.097 28.3471 119.097 28.3471C122.739 28.3471 124.56 27.1295 124.56 24.6943C124.56 22.9232 123.442 22.0376 121.206 22.0376H117.487C112.627 22.0376 110.197 19.8238 110.197 15.3961C110.197 10.5256 113.657 8.09035 120.575 8.09035C123.232 8.09035 125.75 8.47777 128.13 9.25262V13.2376C125.75 12.352 123.232 11.9093 120.575 11.9093C116.59 11.9093 114.597 13.0715 114.597 15.3961C114.597 17.1672 115.56 18.0527 117.487 18.0527H121.206C126.375 18.0527 128.96 20.2666 128.96 24.6943C128.96 29.6755 125.672 32.166 119.097 32.166C116.097 32.166 113.408 31.7786 111.028 31.0038ZM132.696 32V8.25639H137.262L145.315 26.2716L153.202 8.25639H157.602V32H153.534V15.4625L147.091 32H143.339L136.764 15.4625V32H132.696ZM165.024 32H160.507L170.586 8.25639H175.318L185.612 32H180.88L178.174 25.5245H170.287L171.798 21.7056H176.58L172.844 12.7893L165.024 32ZM192.918 8.25639V28.1811H202.349V32H188.518V8.25639H192.918Z" fill="#120152"/>
<path d="M37.2302 7.11175L21.2206 30.2314C20.9534 30.6173 20.3916 30.6414 20.0924 30.2798L0.960016 7.16009C0.577807 6.69823 0.906306 6 1.5058 6L11.8277 6C12.0508 6 12.261 6.10517 12.3947 6.28382L18.8532 14.9094C19.1449 15.2989 19.7334 15.2852 20.0066 14.8825L25.8207 6.31076C25.9525 6.1164 26.1721 6 26.407 6L36.6477 6C37.2192 6 37.5555 6.6419 37.2302 7.11175Z" fill="#3DB8FC"/>
<path d="M14.5903 31.7623L29.7117 10.4851C30.247 9.73189 31.3484 9.68437 31.9466 10.3887L50.0176 31.6659C50.7993 32.5863 50.1452 34 48.9377 34H40.1953C39.7551 34 39.34 33.7955 39.0718 33.4465L33.2193 25.8306C32.6352 25.0705 31.4807 25.0977 30.933 25.8845L25.7063 33.3926C25.4414 33.7732 25.0071 34 24.5434 34H15.7452C14.5943 34 13.9236 32.7005 14.5903 31.7623Z" fill="#8A2BE1"/>
</svg>
