<svg width="205" height="57" viewBox="0 0 205 57" fill="none" xmlns="http://www.w3.org/2000/svg">
<path d="M63.4907 31.9676V8.25718H74.2833C79.1316 8.25718 81.5558 10.3769 81.5558 14.6165C81.5558 17.4834 79.6685 19.8578 75.8938 21.7396L83.4154 32.0008H77.8697L70.647 21.6565V19.6475C74.8533 18.928 76.9565 17.2953 76.9565 14.7493C76.9565 13.0004 75.9713 12.1259 74.001 12.1259H67.9738V31.9676H63.4907ZM87.9483 32.0008H83.432L93.5106 8.25718H98.2427L108.537 32.0008H103.805L101.099 25.5253H93.2117L94.7227 21.7064H99.5046L95.7687 12.7901L87.9483 32.0008ZM111.028 31.0046V27.0196C113.408 27.9052 116.097 28.3479 119.097 28.3479C122.739 28.3479 124.56 27.1303 124.56 24.6951C124.56 22.924 123.442 22.0384 121.206 22.0384H117.487C112.627 22.0384 110.198 19.8246 110.198 15.3969C110.198 10.5264 113.657 8.09114 120.575 8.09114C123.232 8.09114 125.75 8.47857 128.13 9.25342V13.2384C125.75 12.3528 123.232 11.91 120.575 11.91C116.59 11.91 114.598 13.0723 114.598 15.3969C114.598 17.168 115.561 18.0535 117.487 18.0535H121.206C126.375 18.0535 128.96 20.2674 128.96 24.6951C128.96 29.6762 125.672 32.1668 119.097 32.1668C116.097 32.1668 113.408 31.7794 111.028 31.0046ZM132.696 32.0008V8.25718H137.262L145.315 26.2724L153.202 8.25718H157.602V32.0008H153.534V15.4633L147.091 32.0008H143.339L136.764 15.4633V32.0008H132.696ZM165.024 32.0008H160.507L170.586 8.25718H175.318L185.613 32.0008H180.88L178.174 25.5253H170.287L171.798 21.7064H176.58L172.844 12.7901L165.024 32.0008ZM192.918 8.25718V28.1819H202.349V32.0008H188.518V8.25718H192.918Z" fill="white"/>
<path d="M37.2303 7.11254L21.2207 30.2322C20.9535 30.6181 20.3918 30.6422 20.0925 30.2806L0.960138 7.16089C0.577929 6.69902 0.906428 6.00079 1.50593 6.00079L11.8278 6.00079C12.051 6.00079 12.2611 6.10597 12.3949 6.28462L18.8534 14.9102C19.145 15.2997 19.7336 15.286 20.0067 14.8833L25.8208 6.31156C25.9527 6.11719 26.1723 6.0008 26.4071 6.0008L36.6479 6.0008C37.2194 6.0008 37.5556 6.64269 37.2303 7.11254Z" fill="white"/>
<path d="M14.5904 31.7631L29.7118 10.4859C30.2471 9.73269 31.3485 9.68517 31.9467 10.3895L50.0178 31.6667C50.7994 32.5871 50.1453 34.0008 48.9378 34.0008H40.1954C39.7553 34.0008 39.3401 33.7963 39.0719 33.4473L33.2194 25.8314C32.6353 25.0713 31.4808 25.0985 30.9331 25.8853L25.7064 33.3934C25.4415 33.774 25.0072 34.0008 24.5435 34.0008H15.7453C14.5944 34.0008 13.9237 32.7013 14.5904 31.7631Z" fill="white" fill-opacity="0.7"/>
</svg>
