<svg width="24" height="24" viewBox="0 0 24 24" fill="none" xmlns="http://www.w3.org/2000/svg">
<path d="M21.9701 18.3307C21.9701 18.6907 21.8901 19.0607 21.7201 19.4207C21.5501 19.7807 21.3301 20.1207 21.0401 20.4407C20.5501 20.9807 20.0101 21.3707 19.4001 21.6207C18.8001 21.8707 18.1501 22.0007 17.4501 22.0007C16.4301 22.0007 15.3401 21.7607 14.1901 21.2707C13.0401 20.7807 11.8901 20.1207 10.7501 19.2907C9.60012 18.4507 8.51012 17.5207 7.47012 16.4907C6.44012 15.4507 5.51012 14.3607 4.68012 13.2207C3.86012 12.0807 3.20012 10.9407 2.72012 9.81073C2.24012 8.67073 2.00012 7.58073 2.00012 6.54073C2.00012 5.86073 2.12012 5.21073 2.36012 4.61073C2.60012 4.00073 2.98012 3.44073 3.51012 2.94073C4.15012 2.31073 4.85012 2.00073 5.59012 2.00073C5.87012 2.00073 6.15012 2.06073 6.40012 2.18073C6.66012 2.30073 6.89012 2.48073 7.07012 2.74073L9.39012 6.01073C9.57012 6.26073 9.70012 6.49073 9.79012 6.71073C9.88012 6.92073 9.93012 7.13073 9.93012 7.32073C9.93012 7.56073 9.86012 7.80073 9.72012 8.03073C9.59012 8.26073 9.40012 8.50073 9.16012 8.74073L8.40012 9.53073C8.29012 9.64073 8.24012 9.77073 8.24012 9.93073C8.24012 10.0107 8.25012 10.0807 8.27012 10.1607C8.30012 10.2407 8.33012 10.3007 8.35012 10.3607C8.53012 10.6907 8.84012 11.1207 9.28012 11.6407C9.73012 12.1607 10.2101 12.6907 10.7301 13.2207C11.2701 13.7507 11.7901 14.2407 12.3201 14.6907C12.8401 15.1307 13.2701 15.4307 13.6101 15.6107C13.6601 15.6307 13.7201 15.6607 13.7901 15.6907C13.8701 15.7207 13.9501 15.7307 14.0401 15.7307C14.2101 15.7307 14.3401 15.6707 14.4501 15.5607L15.2101 14.8107C15.4601 14.5607 15.7001 14.3707 15.9301 14.2507C16.1601 14.1107 16.3901 14.0407 16.6401 14.0407C16.8301 14.0407 17.0301 14.0807 17.2501 14.1707C17.4701 14.2607 17.7001 14.3907 17.9501 14.5607L21.2601 16.9107C21.5201 17.0907 21.7001 17.3007 21.8101 17.5507C21.9101 17.8007 21.9701 18.0507 21.9701 18.3307Z" stroke="white" stroke-opacity="0.7" stroke-width="1.5" stroke-miterlimit="10"/>
</svg>
