<svg width="24" height="24" viewBox="0 0 24 24" fill="none" xmlns="http://www.w3.org/2000/svg">
<path d="M7.00012 12.0007C3.00012 12.0007 3.00012 13.7907 3.00012 16.0007V17.0007C3.00012 19.7607 3.00012 22.0007 8.00012 22.0007H16.0001C20.0001 22.0007 21.0001 19.7607 21.0001 17.0007V16.0007C21.0001 13.7907 21.0001 12.0007 17.0001 12.0007C16.0001 12.0007 15.7201 12.2107 15.2001 12.6007L14.1801 13.6807C13.0001 14.9407 11.0001 14.9407 9.81012 13.6807L8.80012 12.6007C8.28012 12.2107 8.00012 12.0007 7.00012 12.0007Z" stroke="white" stroke-opacity="0.7" stroke-width="1.5" stroke-miterlimit="10" stroke-linecap="round" stroke-linejoin="round"/>
<path d="M19.0001 12.0007V6.00073C19.0001 3.79073 19.0001 2.00073 15.0001 2.00073H9.00012C5.00012 2.00073 5.00012 3.79073 5.00012 6.00073V12.0007" stroke="white" stroke-opacity="0.7" stroke-width="1.5" stroke-miterlimit="10" stroke-linecap="round" stroke-linejoin="round"/>
<path d="M10.5501 9.23071H13.8801" stroke="white" stroke-opacity="0.7" stroke-width="1.5" stroke-linecap="round" stroke-linejoin="round"/>
<path d="M9.72009 6.23071H14.7201" stroke="white" stroke-opacity="0.7" stroke-width="1.5" stroke-linecap="round" stroke-linejoin="round"/>
</svg>
